<?xml version="1.0" encoding="UTF-8" standalone="no"?>
<!DOCTYPE svg PUBLIC "-//W3C//DTD SVG 1.1//EN" "http://www.w3.org/Graphics/SVG/1.1/DTD/svg11.dtd">
<svg version="1.1" xmlns="http://www.w3.org/2000/svg" xmlns:xlink="http://www.w3.org/1999/xlink" preserveAspectRatio="xMidYMid meet" viewBox="0 0 20 20" width="20" height="20"><defs><path d="M13.64 5.06L13.93 5.14L14.19 5.26L14.41 5.41L14.58 5.6L14.71 5.82L14.8 6.08L14.82 6.38L14.81 6.65L14.75 6.87L14.68 7.06L14.58 7.23L14.46 7.36L14.33 7.47L14.19 7.56L14.06 7.62L13.92 7.67L13.92 7.69L14.15 7.74L14.36 7.82L14.54 7.93L14.71 8.06L14.84 8.21L14.95 8.39L15.03 8.59L15.08 8.8L15.1 9.03L15.08 9.26L15.02 9.51L14.92 9.75L14.77 9.97L14.55 10.18L14.26 10.35L13.89 10.49L13.44 10.58L12.9 10.61L11.74 10.61L11.77 10.68L11.8 10.75L11.82 10.83L11.84 10.91L11.86 11L11.88 11.09L11.89 11.18L11.89 11.28L11.89 11.38L11.87 11.67L11.79 11.94L11.66 12.2L11.48 12.42L11.25 12.62L10.96 12.78L10.62 12.91L10.22 12.98L9.77 13.01L6.68 13.01L6.22 12.55L6.22 15L5.1 15L5.1 9.38L6.75 9.38L7.36 9.43L7.84 9.57L8.21 9.77L8.49 10.02L8.68 10.29L8.8 10.57L8.87 10.82L8.9 11.04L8.91 11.2L8.91 11.29L8.9 11.39L8.89 11.49L8.87 11.59L8.84 11.69L8.81 11.79L8.77 11.9L8.72 12L8.67 12.09L9.81 12.09L10 12.08L10.17 12.04L10.32 11.99L10.44 11.91L10.54 11.82L10.61 11.73L10.67 11.62L10.7 11.52L10.71 11.41L10.69 11.23L10.63 11.08L10.53 10.95L10.41 10.84L10.26 10.74L10.1 10.66L9.93 10.58L9.76 10.5L9.58 10.41L9.32 10.27L9.08 10.14L8.87 10L8.69 9.85L8.55 9.69L8.43 9.51L8.35 9.32L8.3 9.1L8.28 8.85L8.29 8.65L8.33 8.42L8.41 8.19L8.53 7.96L8.71 7.74L8.94 7.56L9.23 7.4L9.59 7.31L10.04 7.27L11.12 7.27L11.12 5L12.97 5L13.32 5.01L13.64 5.06ZM6.22 12.09L6.75 12.09L7.19 12.01L7.49 11.79L7.66 11.48L7.71 11.14L7.65 10.8L7.48 10.52L7.18 10.33L6.75 10.26L6.22 10.26L6.22 12.09ZM9.88 8.21L9.62 8.35L9.5 8.54L9.47 8.73L9.53 9.02L9.7 9.24L9.94 9.41L10.21 9.54L10.45 9.64L10.69 9.75L10.91 9.85L11.12 9.97L11.12 8.61L11.57 8.16L10.3 8.16L9.88 8.21ZM12.25 9.72L12.9 9.72L13.35 9.65L13.66 9.48L13.84 9.23L13.89 8.93L13.85 8.64L13.69 8.4L13.38 8.22L12.9 8.16L12.25 8.16L12.25 9.72ZM12.25 7.27L12.81 7.27L13.26 7.2L13.52 7.01L13.65 6.79L13.68 6.58L13.66 6.4L13.55 6.16L13.28 5.96L12.77 5.88L12.25 5.88L12.25 7.27Z" id="axwBlmzrn"></path><path d="M20 4.87C20 2.18 17.82 0 15.13 0C14.45 0 8.95 0 8.26 0C6.04 0 4.15 1.5 3.57 3.56C4.41 3.56 11.05 3.56 11.88 3.56C15.08 3.56 16.44 5.05 16.44 8.54C16.44 9.33 16.44 15.65 16.44 16.44C18.5 15.86 20 13.96 20 11.75C20 11.29 20 9 20 4.87" id="a1AKls2Vch"></path><path d="M0 15.13C0 17.82 2.18 20 4.87 20C5.55 20 11.05 20 11.74 20C13.96 20 15.85 18.5 16.43 16.44C15.59 16.44 8.95 16.44 8.12 16.44C4.92 16.44 3.56 14.95 3.56 11.46C3.56 10.67 3.56 4.35 3.56 3.56C1.5 4.14 0 6.04 0 8.25C0 8.71 0 11 0 15.13" id="bZg5pUfp3"></path></defs><g><g><g><use xlink:href="#axwBlmzrn" opacity="1" fill="#2647a3" fill-opacity="1"></use><g><use xlink:href="#axwBlmzrn" opacity="1" fill-opacity="0" stroke="#000000" stroke-width="1" stroke-opacity="0"></use></g></g><g><use xlink:href="#a1AKls2Vch" opacity="1" fill="#2647a3" fill-opacity="1"></use><g><use xlink:href="#a1AKls2Vch" opacity="1" fill-opacity="0" stroke="#000000" stroke-width="1" stroke-opacity="0"></use></g></g><g><use xlink:href="#bZg5pUfp3" opacity="1" fill="#f1511b" fill-opacity="1"></use><g><use xlink:href="#bZg5pUfp3" opacity="1" fill-opacity="0" stroke="#000000" stroke-width="1" stroke-opacity="0"></use></g></g><path></path><path></path><path></path><path></path><path></path><path></path></g></g></svg>